<svg xmlns="http://www.w3.org/2000/svg" viewBox="0 0 18.729 18.729"><defs><style>.a{fill:#06e0cc;}</style></defs><path class="a" d="M13.56,0H5.168A5.174,5.174,0,0,0,0,5.168V13.56a5.174,5.174,0,0,0,5.168,5.168H13.56a5.174,5.174,0,0,0,5.168-5.168V5.168A5.174,5.174,0,0,0,13.56,0Zm3.507,13.56a3.511,3.511,0,0,1-3.507,3.507H5.168A3.511,3.511,0,0,1,1.662,13.56V5.168A3.511,3.511,0,0,1,5.168,1.662H13.56a3.511,3.511,0,0,1,3.507,3.507V13.56Z"/><path class="a" d="M45.794,40.97A4.826,4.826,0,1,0,50.62,45.8,4.831,4.831,0,0,0,45.794,40.97Zm0,7.99A3.164,3.164,0,1,1,48.958,45.8,3.168,3.168,0,0,1,45.794,48.96Z" transform="translate(-36.43 -36.431)"/><path class="a" d="M120.14,28.251a1.218,1.218,0,1,0,.862.357A1.223,1.223,0,0,0,120.14,28.251Z" transform="translate(-105.747 -25.121)"/></svg>